{"accessors" : [{"bufferView" : 0, "byteOffset" : 0, "componentType" : 5123, "count" : 108, "type" : "SCALAR", "max" : [107], "min" : [0]}, {"bufferView" : 1, "byteOffset" : 0, "componentType" : 5126, "count" : 108, "type" : "VEC3", "max" : [0.415800005197525, 0.5593799948692322, 0.33263999223709106], "min" : [-0.415800005197525, -0.10589999705553055, -0.415800005197525], "name" : "POSITION"}, {"bufferView" : 1, "byteOffset" : 12, "componentType" : 5126, "count" : 108, "type" : "VEC2", "max" : [0.71875, -0.28125], "min" : [0, -1], "name" : "TEXCOORD_0"}, {"bufferView" : 1, "byteOffset" : 20, "componentType" : 5126, "count" : 108, "type" : "VEC3", "max" : [1.0000044107437134, 1.0000044107437134, 1.0000044107437134], "min" : [-1.0000044107437134, -1.0000044107437134, -1.0000044107437134], "name" : "NORMAL"}, {"bufferView" : 0, "byteOffset" : 216, "componentType" : 5123, "count" : 96, "type" : "SCALAR", "max" : [91], "min" : [0]}, {"bufferView" : 2, "byteOffset" : 0, "componentType" : 5126, "count" : 92, "type" : "VEC3", "max" : [0.7484400272369385, 0.8504400253295898, -0.12473999708890915], "min" : [0.415800005197525, 0.6009600162506104, -0.2079000025987625], "name" : "POSITION"}, {"bufferView" : 2, "byteOffset" : 12, "componentType" : 5126, "count" : 92, "type" : "VEC2", "max" : [0.65625, -0.30413123965263367], "min" : [0.21875, -0.78125], "name" : "TEXCOORD_0"}, {"bufferView" : 2, "byteOffset" : 20, "componentType" : 5126, "count" : 92, "type" : "VEC3", "max" : [0.9805850386619568, 0.9899538159370422, 1.0000044107437134], "min" : [-0.9805850386619568, -1.0000044107437134, -1.0000044107437134], "name" : "NORMAL"}, {"bufferView" : 0, "byteOffset" : 408, "componentType" : 5123, "count" : 96, "type" : "SCALAR", "max" : [91], "min" : [0]}, {"bufferView" : 3, "byteOffset" : 0, "componentType" : 5126, "count" : 92, "type" : "VEC3", "max" : [-0.415800005197525, 0.8504400253295898, -0.12473999708890915], "min" : [-0.7484400272369385, 0.6009600162506104, -0.2079000025987625], "name" : "POSITION"}, {"bufferView" : 3, "byteOffset" : 12, "componentType" : 5126, "count" : 92, "type" : "VEC2", "max" : [0.65625, -0.30413123965263367], "min" : [0.21875, -0.78125], "name" : "TEXCOORD_0"}, {"bufferView" : 3, "byteOffset" : 20, "componentType" : 5126, "count" : 92, "type" : "VEC3", "max" : [0.9805850386619568, 0.9899538159370422, 1.0000044107437134], "min" : [-0.9805850386619568, -1.0000044107437134, -1.0000044107437134], "name" : "NORMAL"}, {"bufferView" : 0, "byteOffset" : 600, "componentType" : 5123, "count" : 96, "type" : "SCALAR", "max" : [93], "min" : [0]}, {"bufferView" : 4, "byteOffset" : 0, "componentType" : 5126, "count" : 94, "type" : "VEC3", "max" : [0.33263999223709106, -0.1890600025653839, 0.21829506754875183], "min" : [-0.33263999223709106, -1.0206600427627563, -0.3721410036087036], "name" : "POSITION"}, {"bufferView" : 4, "byteOffset" : 12, "componentType" : 5126, "count" : 94, "type" : "VEC2", "max" : [0.578125, -0.4679703116416931], "min" : [0.0029296875, -1], "name" : "TEXCOORD_0"}, {"bufferView" : 4, "byteOffset" : 20, "componentType" : 5126, "count" : 94, "type" : "VEC3", "max" : [0.9950416088104248, 1.0000044107437134, 0.9996920228004456], "min" : [-0.9950416088104248, -1.0000044107437134, -0.9689896702766418], "name" : "NORMAL"}, {"bufferView" : 0, "byteOffset" : 792, "componentType" : 5123, "count" : 36, "type" : "SCALAR", "max" : [31], "min" : [0]}, {"bufferView" : 5, "byteOffset" : 0, "componentType" : 5126, "count" : 32, "type" : "VEC3", "max" : [0.6652799844741821, -0.15787500143051147, 0.1143449991941452], "min" : [0.2494799941778183, -0.3865649998188019, -0.1143449991941452], "name" : "POSITION"}, {"bufferView" : 5, "byteOffset" : 12, "componentType" : 5126, "count" : 32, "type" : "VEC2", "max" : [0.6459153890609741, -0.3566052317619324], "min" : [0.0957629606127739, -0.90625], "name" : "TEXCOORD_0"}, {"bufferView" : 5, "byteOffset" : 20, "componentType" : 5126, "count" : 32, "type" : "VEC3", "max" : [1.0000044107437134, 0.9972037076950073, 0.9972037076950073], "min" : [-1.0000044107437134, -0.9972037076950073, -0.9972037076950073], "name" : "NORMAL"}, {"bufferView" : 0, "byteOffset" : 864, "componentType" : 5123, "count" : 36, "type" : "SCALAR", "max" : [33], "min" : [0]}, {"bufferView" : 6, "byteOffset" : 0, "componentType" : 5126, "count" : 34, "type" : "VEC3", "max" : [1.0810799598693848, -0.15787500143051147, 0.14553000032901764], "min" : [0.6652799844741821, -0.3865649998188019, -0.14553000032901764], "name" : "POSITION"}, {"bufferView" : 6, "byteOffset" : 12, "componentType" : 5126, "count" : 34, "type" : "VEC2", "max" : [0.640625, -0.39453125], "min" : [0.15625, -1], "name" : "TEXCOORD_0"}, {"bufferView" : 6, "byteOffset" : 20, "componentType" : 5126, "count" : 34, "type" : "VEC3", "max" : [1.0000044107437134, 0.9996919631958008, 0.9972037076950073], "min" : [-1.0000044107437134, -0.9996919631958008, -0.9972037076950073], "name" : "NORMAL"}, {"bufferView" : 0, "byteOffset" : 936, "componentType" : 5123, "count" : 96, "type" : "SCALAR", "max" : [87], "min" : [0]}, {"bufferView" : 7, "byteOffset" : 0, "componentType" : 5126, "count" : 88, "type" : "VEC3", "max" : [1.3305599689483643, -0.1890600025653839, 0.16631999611854553], "min" : [0.9979199767112732, -0.35537999868392944, -0.16631999611854553], "name" : "POSITION"}, {"bufferView" : 7, "byteOffset" : 12, "componentType" : 5126, "count" : 88, "type" : "VEC2", "max" : [0.4102781116962433, -0.3515625], "min" : [0, -0.6875], "name" : "TEXCOORD_0"}, {"bufferView" : 7, "byteOffset" : 20, "componentType" : 5126, "count" : 88, "type" : "VEC3", "max" : [0.9899538159370422, 1.0000044107437134, 0.9899538159370422], "min" : [-1.0000044107437134, -1.0000044107437134, -0.9899538159370422], "name" : "NORMAL"}, {"bufferView" : 0, "byteOffset" : 1128, "componentType" : 5123, "count" : 36, "type" : "SCALAR", "max" : [35], "min" : [0]}, {"bufferView" : 8, "byteOffset" : 0, "componentType" : 5126, "count" : 36, "type" : "VEC3", "max" : [-0.2494799941778183, -0.15787500143051147, 0.1143449991941452], "min" : [-0.6652799844741821, -0.3865649998188019, -0.1143449991941452], "name" : "POSITION"}, {"bufferView" : 8, "byteOffset" : 12, "componentType" : 5126, "count" : 36, "type" : "VEC2", "max" : [0.6459153890609741, -0.3566052317619324], "min" : [0.0957629606127739, -0.90625], "name" : "TEXCOORD_0"}, {"bufferView" : 8, "byteOffset" : 20, "componentType" : 5126, "count" : 36, "type" : "VEC3", "max" : [1.0000044107437134, 0.9972037076950073, 0.9972037076950073], "min" : [-1.0000044107437134, -0.9972037076950073, -0.9972037076950073], "name" : "NORMAL"}, {"bufferView" : 0, "byteOffset" : 1200, "componentType" : 5123, "count" : 96, "type" : "SCALAR", "max" : [93], "min" : [0]}, {"bufferView" : 9, "byteOffset" : 0, "componentType" : 5126, "count" : 94, "type" : "VEC3", "max" : [-0.9979199767112732, -0.1890600025653839, 0.16631999611854553], "min" : [-1.3305599689483643, -0.35537999868392944, -0.16631999611854553], "name" : "POSITION"}, {"bufferView" : 9, "byteOffset" : 12, "componentType" : 5126, "count" : 94, "type" : "VEC2", "max" : [0.4102781116962433, -0.3515625], "min" : [0, -0.6875], "name" : "TEXCOORD_0"}, {"bufferView" : 9, "byteOffset" : 20, "componentType" : 5126, "count" : 94, "type" : "VEC3", "max" : [1.0000044107437134, 1.0000044107437134, 0.9899538159370422], "min" : [-0.9899538159370422, -1.0000044107437134, -0.9899538159370422], "name" : "NORMAL"}, {"bufferView" : 0, "byteOffset" : 1392, "componentType" : 5123, "count" : 36, "type" : "SCALAR", "max" : [35], "min" : [0]}, {"bufferView" : 10, "byteOffset" : 0, "componentType" : 5126, "count" : 36, "type" : "VEC3", "max" : [-0.6652799844741821, -0.15787500143051147, 0.14553000032901764], "min" : [-1.0810799598693848, -0.3865649998188019, -0.14553000032901764], "name" : "POSITION"}, {"bufferView" : 10, "byteOffset" : 12, "componentType" : 5126, "count" : 36, "type" : "VEC2", "max" : [0.640625, -0.39453125], "min" : [0.15625, -1], "name" : "TEXCOORD_0"}, {"bufferView" : 10, "byteOffset" : 20, "componentType" : 5126, "count" : 36, "type" : "VEC3", "max" : [1.0000044107437134, 0.9996919631958008, 0.9972037076950073], "min" : [-1.0000044107437134, -0.9996919631958008, -0.9972037076950073], "name" : "NORMAL"}, {"bufferView" : 0, "byteOffset" : 1464, "componentType" : 5123, "count" : 36, "type" : "SCALAR", "max" : [34], "min" : [0]}, {"bufferView" : 11, "byteOffset" : 0, "componentType" : 5126, "count" : 35, "type" : "VEC3", "max" : [0.31185001134872437, -0.9375, 0.08315999805927277], "min" : [0.14553000032901764, -1.6027799844741821, -0.08315999805927277], "name" : "POSITION"}, {"bufferView" : 11, "byteOffset" : 12, "componentType" : 5126, "count" : 35, "type" : "VEC2", "max" : [0.640625, -0.34375], "min" : [0.390625, -0.671875], "name" : "TEXCOORD_0"}, {"bufferView" : 11, "byteOffset" : 20, "componentType" : 5126, "count" : 35, "type" : "VEC3", "max" : [0.999516487121582, 1.0000044107437134, 1.0000044107437134], "min" : [-0.999516487121582, -1.0000044107437134, -1.0000044107437134], "name" : "NORMAL"}, {"bufferView" : 0, "byteOffset" : 1536, "componentType" : 5123, "count" : 36, "type" : "SCALAR", "max" : [34], "min" : [0]}, {"bufferView" : 12, "byteOffset" : 0, "componentType" : 5126, "count" : 35, "type" : "VEC3", "max" : [-0.14553000032901764, -0.9375, 0.08315999805927277], "min" : [-0.31185001134872437, -1.6027799844741821, -0.08315999805927277], "name" : "POSITION"}, {"bufferView" : 12, "byteOffset" : 12, "componentType" : 5126, "count" : 35, "type" : "VEC2", "max" : [0.640625, -0.34375], "min" : [0.390625, -0.671875], "name" : "TEXCOORD_0"}, {"bufferView" : 12, "byteOffset" : 20, "componentType" : 5126, "count" : 35, "type" : "VEC3", "max" : [0.999516487121582, 1.0000044107437134, 1.0000044107437134], "min" : [-0.999516487121582, -1.0000044107437134, -1.0000044107437134], "name" : "NORMAL"}], "asset" : {"generator" : "Aspose.3D 23.9.0", "version" : "2.0"}, "buffers" : [{"uri" : "data:application/octet-stream;base64,", "byteLength" : 27388}], "bufferViews" : [{"buffer" : 0, "byteOffset" : 0, "byteLength" : 1608, "target" : 34963}, {"buffer" : 0, "byteOffset" : 1612, "byteLength" : 3456, "byteStride" : 32, "target" : 34962}, {"buffer" : 0, "byteOffset" : 5072, "byteLength" : 3072, "byteStride" : 32, "target" : 34962}, {"buffer" : 0, "byteOffset" : 8148, "byteLength" : 3072, "byteStride" : 32, "target" : 34962}, {"buffer" : 0, "byteOffset" : 11224, "byteLength" : 3072, "byteStride" : 32, "target" : 34962}, {"buffer" : 0, "byteOffset" : 14300, "byteLength" : 1152, "byteStride" : 32, "target" : 34962}, {"buffer" : 0, "byteOffset" : 15456, "byteLength" : 1152, "byteStride" : 32, "target" : 34962}, {"buffer" : 0, "byteOffset" : 16612, "byteLength" : 3072, "byteStride" : 32, "target" : 34962}, {"buffer" : 0, "byteOffset" : 19688, "byteLength" : 1152, "byteStride" : 32, "target" : 34962}, {"buffer" : 0, "byteOffset" : 20844, "byteLength" : 3072, "byteStride" : 32, "target" : 34962}, {"buffer" : 0, "byteOffset" : 23920, "byteLength" : 1152, "byteStride" : 32, "target" : 34962}, {"buffer" : 0, "byteOffset" : 25076, "byteLength" : 1152, "byteStride" : 32, "target" : 34962}, {"buffer" : 0, "byteOffset" : 26232, "byteLength" : 1152, "byteStride" : 32, "target" : 34962}], "images" : [{"uri" : "data:image/png;base64,"}], "materials" : [{"name" : "m_8a51ef60-eb95-5b62-0daa-925860f8212c", "pbrMetallicRoughness" : {"baseColorFactor" : [0.8, 0.8, 0.8, 1], "baseColorTexture" : {"index" : 0, "texCoord" : 0}, "metallicFactor" : 0, "roughnessFactor" : 0}, "emissiveFactor" : [0, 0, 0], "alphaMode" : "OPAQUE", "doubleSided" : false}, {"name" : "m_8a51ef60-eb95-5b62-0daa-925860f8212c", "pbrMetallicRoughness" : {"baseColorFactor" : [0.8, 0.8, 0.8, 1], "baseColorTexture" : {"index" : 0, "texCoord" : 0}, "metallicFactor" : 0, "roughnessFactor" : 0}, "emissiveFactor" : [0, 0, 0], "alphaMode" : "OPAQUE", "doubleSided" : false}, {"name" : "m_8a51ef60-eb95-5b62-0daa-925860f8212c", "pbrMetallicRoughness" : {"baseColorFactor" : [0.8, 0.8, 0.8, 1], "baseColorTexture" : {"index" : 0, "texCoord" : 0}, "metallicFactor" : 0, "roughnessFactor" : 0}, "emissiveFactor" : [0, 0, 0], "alphaMode" : "OPAQUE", "doubleSided" : false}, {"name" : "m_8a51ef60-eb95-5b62-0daa-925860f8212c", "pbrMetallicRoughness" : {"baseColorFactor" : [0.8, 0.8, 0.8, 1], "baseColorTexture" : {"index" : 0, "texCoord" : 0}, "metallicFactor" : 0, "roughnessFactor" : 0}, "emissiveFactor" : [0, 0, 0], "alphaMode" : "OPAQUE", "doubleSided" : false}, {"name" : "m_8a51ef60-eb95-5b62-0daa-925860f8212c", "pbrMetallicRoughness" : {"baseColorFactor" : [0.8, 0.8, 0.8, 1], "baseColorTexture" : {"index" : 0, "texCoord" : 0}, "metallicFactor" : 0, "roughnessFactor" : 0}, "emissiveFactor" : [0, 0, 0], "alphaMode" : "OPAQUE", "doubleSided" : false}, {"name" : "m_8a51ef60-eb95-5b62-0daa-925860f8212c", "pbrMetallicRoughness" : {"baseColorFactor" : [0.8, 0.8, 0.8, 1], "baseColorTexture" : {"index" : 0, "texCoord" : 0}, "metallicFactor" : 0, "roughnessFactor" : 0}, "emissiveFactor" : [0, 0, 0], "alphaMode" : "OPAQUE", "doubleSided" : false}, {"name" : "m_8a51ef60-eb95-5b62-0daa-925860f8212c", "pbrMetallicRoughness" : {"baseColorFactor" : [0.8, 0.8, 0.8, 1], "baseColorTexture" : {"index" : 0, "texCoord" : 0}, "metallicFactor" : 0, "roughnessFactor" : 0}, "emissiveFactor" : [0, 0, 0], "alphaMode" : "OPAQUE", "doubleSided" : false}, {"name" : "m_8a51ef60-eb95-5b62-0daa-925860f8212c", "pbrMetallicRoughness" : {"baseColorFactor" : [0.8, 0.8, 0.8, 1], "baseColorTexture" : {"index" : 0, "texCoord" : 0}, "metallicFactor" : 0, "roughnessFactor" : 0}, "emissiveFactor" : [0, 0, 0], "alphaMode" : "OPAQUE", "doubleSided" : false}, {"name" : "m_8a51ef60-eb95-5b62-0daa-925860f8212c", "pbrMetallicRoughness" : {"baseColorFactor" : [0.8, 0.8, 0.8, 1], "baseColorTexture" : {"index" : 0, "texCoord" : 0}, "metallicFactor" : 0, "roughnessFactor" : 0}, "emissiveFactor" : [0, 0, 0], "alphaMode" : "OPAQUE", "doubleSided" : false}, {"name" : "m_8a51ef60-eb95-5b62-0daa-925860f8212c", "pbrMetallicRoughness" : {"baseColorFactor" : [0.8, 0.8, 0.8, 1], "baseColorTexture" : {"index" : 0, "texCoord" : 0}, "metallicFactor" : 0, "roughnessFactor" : 0}, "emissiveFactor" : [0, 0, 0], "alphaMode" : "OPAQUE", "doubleSided" : false}, {"name" : "m_8a51ef60-eb95-5b62-0daa-925860f8212c", "pbrMetallicRoughness" : {"baseColorFactor" : [0.8, 0.8, 0.8, 1], "baseColorTexture" : {"index" : 0, "texCoord" : 0}, "metallicFactor" : 0, "roughnessFactor" : 0}, "emissiveFactor" : [0, 0, 0], "alphaMode" : "OPAQUE", "doubleSided" : false}, {"name" : "m_8a51ef60-eb95-5b62-0daa-925860f8212c", "pbrMetallicRoughness" : {"baseColorFactor" : [0.8, 0.8, 0.8, 1], "baseColorTexture" : {"index" : 0, "texCoord" : 0}, "metallicFactor" : 0, "roughnessFactor" : 0}, "emissiveFactor" : [0, 0, 0], "alphaMode" : "OPAQUE", "doubleSided" : false}], "meshes" : [{"primitives" : [{"attributes" : {"POSITION" : 1, "TEXCOORD_0" : 2, "NORMAL" : 3}, "indices" : 0, "material" : 0, "mode" : 4}], "name" : ""}, {"primitives" : [{"attributes" : {"POSITION" : 5, "TEXCOORD_0" : 6, "NORMAL" : 7}, "indices" : 4, "material" : 1, "mode" : 4}], "name" : ""}, {"primitives" : [{"attributes" : {"POSITION" : 9, "TEXCOORD_0" : 10, "NORMAL" : 11}, "indices" : 8, "material" : 2, "mode" : 4}], "name" : ""}, {"primitives" : [{"attributes" : {"POSITION" : 13, "TEXCOORD_0" : 14, "NORMAL" : 15}, "indices" : 12, "material" : 3, "mode" : 4}], "name" : ""}, {"primitives" : [{"attributes" : {"POSITION" : 17, "TEXCOORD_0" : 18, "NORMAL" : 19}, "indices" : 16, "material" : 4, "mode" : 4}], "name" : ""}, {"primitives" : [{"attributes" : {"POSITION" : 21, "TEXCOORD_0" : 22, "NORMAL" : 23}, "indices" : 20, "material" : 5, "mode" : 4}], "name" : ""}, {"primitives" : [{"attributes" : {"POSITION" : 25, "TEXCOORD_0" : 26, "NORMAL" : 27}, "indices" : 24, "material" : 6, "mode" : 4}], "name" : ""}, {"primitives" : [{"attributes" : {"POSITION" : 29, "TEXCOORD_0" : 30, "NORMAL" : 31}, "indices" : 28, "material" : 7, "mode" : 4}], "name" : ""}, {"primitives" : [{"attributes" : {"POSITION" : 33, "TEXCOORD_0" : 34, "NORMAL" : 35}, "indices" : 32, "material" : 8, "mode" : 4}], "name" : ""}, {"primitives" : [{"attributes" : {"POSITION" : 37, "TEXCOORD_0" : 38, "NORMAL" : 39}, "indices" : 36, "material" : 9, "mode" : 4}], "name" : ""}, {"primitives" : [{"attributes" : {"POSITION" : 41, "TEXCOORD_0" : 42, "NORMAL" : 43}, "indices" : 40, "material" : 10, "mode" : 4}], "name" : ""}, {"primitives" : [{"attributes" : {"POSITION" : 45, "TEXCOORD_0" : 46, "NORMAL" : 47}, "indices" : 44, "material" : 11, "mode" : 4}], "name" : ""}], "nodes" : [{"mesh" : 0, "name" : "cuboid"}, {"mesh" : 1, "name" : "cuboid"}, {"mesh" : 2, "name" : "cuboid"}, {"mesh" : 3, "name" : "cuboid"}, {"mesh" : 4, "name" : "cuboid"}, {"mesh" : 5, "name" : "cuboid"}, {"mesh" : 6, "name" : "cuboid"}, {"mesh" : 7, "name" : "cuboid"}, {"mesh" : 8, "name" : "cuboid"}, {"mesh" : 9, "name" : "cuboid"}, {"mesh" : 10, "name" : "cuboid"}, {"mesh" : 11, "name" : "cuboid"}], "samplers" : [{"magFilter" : 9729, "minFilter" : 9729, "wrapS" : 10497, "wrapT" : 10497}], "scene" : 0, "scenes" : [{"nodes" : [0, 1, 2, 3, 4, 5, 6, 7, 8, 9, 10, 11]}], "textures" : [{"sampler" : 0, "source" : 0, "name" : ""}]}