{"asset":{"version":"2.0","generator":"Blockbench 4.8.3 glTF exporter"},"scenes":[{"nodes":[30],"name":"blockbench_export"}],"scene":0,"nodes":[{"name":"cuboid","mesh":0},{"name":"monitor","children":[0]},{"translation":[-0.4375,-1.125,0],"name":"cuboid","mesh":1},{"translation":[0.4375,1.125,0],"name":"oreja1","children":[2]},{"translation":[0.4375,-1.125,0],"name":"cuboid","mesh":2},{"translation":[-0.4375,1.125,0],"name":"oreja2","children":[4]},{"name":"head","children":[1,3,5]},{"name":"cuboid","mesh":3},{"name":"cuerpo","children":[7]},{"name":"cuboid","mesh":4},{"translation":[-0.5625,-0.375,0],"name":"b1","children":[9]},{"translation":[-0.8125,-0.375,0],"name":"cuboid","mesh":5},{"translation":[0.25,0,0],"name":"ab1","children":[11]},{"translation":[-1.0625,-0.375,0],"name":"cuboid","mesh":6},{"translation":[0.5,0,0],"name":"m1","children":[13]},{"translation":[0.25,0.5,0],"name":"brazo1","children":[10,12,14]},{"name":"cuboid","mesh":7},{"translation":[0.5,-0.375,0],"name":"b2","children":[16]},{"translation":[1.0917107474470005,-0.3782664637953138,0],"name":"cuboid","mesh":8},{"translation":[-0.2792107474470005,0.003266463795313812,0],"name":"m2","children":[18]},{"name":"cuboid","mesh":9},{"translation":[0.8125,-0.375,0],"name":"ab2","children":[20]},{"translation":[-0.3125,0,0],"name":"bone2","children":[19,21]},{"translation":[-0.1875,0.5,0],"name":"brazo2","children":[17,22]},{"name":"cuboid","mesh":10},{"name":"pierna1","children":[24]},{"name":"cuboid","mesh":11},{"name":"pierna2","children":[26]},{"name":"body","children":[8,15,23,25,27]},{"name":"bone","children":[6,28]},{"children":[29]}],"bufferViews":[{"buffer":0,"byteOffset":0,"byteLength":864,"target":34962,"byteStride":12},{"buffer":0,"byteOffset":864,"byteLength":864,"target":34962,"byteStride":12},{"buffer":0,"byteOffset":1728,"byteLength":576,"target":34962,"byteStride":8},{"buffer":0,"byteOffset":2304,"byteLength":216,"target":34963},{"buffer":0,"byteOffset":2520,"byteLength":768,"target":34962,"byteStride":12},{"buffer":0,"byteOffset":3288,"byteLength":768,"target":34962,"byteStride":12},{"buffer":0,"byteOffset":4056,"byteLength":512,"target":34962,"byteStride":8},{"buffer":0,"byteOffset":4568,"byteLength":192,"target":34963},{"buffer":0,"byteOffset":4760,"byteLength":768,"target":34962,"byteStride":12},{"buffer":0,"byteOffset":5528,"byteLength":768,"target":34962,"byteStride":12},{"buffer":0,"byteOffset":6296,"byteLength":512,"target":34962,"byteStride":8},{"buffer":0,"byteOffset":6808,"byteLength":192,"target":34963},{"buffer":0,"byteOffset":7000,"byteLength":768,"target":34962,"byteStride":12},{"buffer":0,"byteOffset":7768,"byteLength":768,"target":34962,"byteStride":12},{"buffer":0,"byteOffset":8536,"byteLength":512,"target":34962,"byteStride":8},{"buffer":0,"byteOffset":9048,"byteLength":192,"target":34963},{"buffer":0,"byteOffset":9240,"byteLength":288,"target":34962,"byteStride":12},{"buffer":0,"byteOffset":9528,"byteLength":288,"target":34962,"byteStride":12},{"buffer":0,"byteOffset":9816,"byteLength":192,"target":34962,"byteStride":8},{"buffer":0,"byteOffset":10008,"byteLength":72,"target":34963},{"buffer":0,"byteOffset":10080,"byteLength":288,"target":34962,"byteStride":12},{"buffer":0,"byteOffset":10368,"byteLength":288,"target":34962,"byteStride":12},{"buffer":0,"byteOffset":10656,"byteLength":192,"target":34962,"byteStride":8},{"buffer":0,"byteOffset":10848,"byteLength":72,"target":34963},{"buffer":0,"byteOffset":10920,"byteLength":768,"target":34962,"byteStride":12},{"buffer":0,"byteOffset":11688,"byteLength":768,"target":34962,"byteStride":12},{"buffer":0,"byteOffset":12456,"byteLength":512,"target":34962,"byteStride":8},{"buffer":0,"byteOffset":12968,"byteLength":192,"target":34963},{"buffer":0,"byteOffset":13160,"byteLength":288,"target":34962,"byteStride":12},{"buffer":0,"byteOffset":13448,"byteLength":288,"target":34962,"byteStride":12},{"buffer":0,"byteOffset":13736,"byteLength":192,"target":34962,"byteStride":8},{"buffer":0,"byteOffset":13928,"byteLength":72,"target":34963},{"buffer":0,"byteOffset":14000,"byteLength":768,"target":34962,"byteStride":12},{"buffer":0,"byteOffset":14768,"byteLength":768,"target":34962,"byteStride":12},{"buffer":0,"byteOffset":15536,"byteLength":512,"target":34962,"byteStride":8},{"buffer":0,"byteOffset":16048,"byteLength":192,"target":34963},{"buffer":0,"byteOffset":16240,"byteLength":288,"target":34962,"byteStride":12},{"buffer":0,"byteOffset":16528,"byteLength":288,"target":34962,"byteStride":12},{"buffer":0,"byteOffset":16816,"byteLength":192,"target":34962,"byteStride":8},{"buffer":0,"byteOffset":17008,"byteLength":72,"target":34963},{"buffer":0,"byteOffset":17080,"byteLength":288,"target":34962,"byteStride":12},{"buffer":0,"byteOffset":17368,"byteLength":288,"target":34962,"byteStride":12},{"buffer":0,"byteOffset":17656,"byteLength":192,"target":34962,"byteStride":8},{"buffer":0,"byteOffset":17848,"byteLength":72,"target":34963},{"buffer":0,"byteOffset":17920,"byteLength":288,"target":34962,"byteStride":12},{"buffer":0,"byteOffset":18208,"byteLength":288,"target":34962,"byteStride":12},{"buffer":0,"byteOffset":18496,"byteLength":192,"target":34962,"byteStride":8},{"buffer":0,"byteOffset":18688,"byteLength":72,"target":34963}],"buffers":[{"byteLength":18760,"uri":"data:application/octet-stream;base64,"}],"accessors":[{"bufferView":0,"componentType":5126,"count":72,"max":[0.3125,1.125,0.25],"min":[-0.3125,0.625,-0.3125],"type":"VEC3"},{"bufferView":1,"componentType":5126,"count":72,"max":[1,1,1],"min":[-1,-1,-1],"type":"VEC3"},{"bufferView":2,"componentType":5126,"count":72,"max":[0.71875,0.71875],"min":[0,0],"type":"VEC2"},{"bufferView":3,"componentType":5123,"count":108,"max":[71],"min":[0],"type":"SCALAR"},{"bufferView":4,"componentType":5126,"count":64,"max":[0.5625,1.34375,-0.09375],"min":[0.3125,1.15625,-0.15625],"type":"VEC3"},{"bufferView":5,"componentType":5126,"count":64,"max":[0.9805806875228882,0.9899494647979736,1],"min":[-0.9805806875228882,-1,-1],"type":"VEC3"},{"bufferView":6,"componentType":5126,"count":64,"max":[0.65625,0.695868730545044],"min":[0.21875,0.21875],"type":"VEC2"},{"bufferView":7,"componentType":5123,"count":96,"max":[63],"min":[0],"type":"SCALAR"},{"bufferView":8,"componentType":5126,"count":64,"max":[-0.3125,1.34375,-0.09375],"min":[-0.5625,1.15625,-0.15625],"type":"VEC3"},{"bufferView":9,"componentType":5126,"count":64,"max":[0.9805806875228882,0.9899494647979736,1],"min":[-0.9805806875228882,-1,-1],"type":"VEC3"},{"bufferView":10,"componentType":5126,"count":64,"max":[0.65625,0.695868730545044],"min":[0.21875,0.21875],"type":"VEC2"},{"bufferView":11,"componentType":5123,"count":96,"max":[63],"min":[0],"type":"SCALAR"},{"bufferView":12,"componentType":5126,"count":64,"max":[0.25,0.5625,0.16406254470348358],"min":[-0.25,-0.0625,-0.21875],"type":"VEC3"},{"bufferView":13,"componentType":5126,"count":64,"max":[0.9950371980667114,1,0.9996876120567322],"min":[-0.9950371980667114,-1,-0.997199296951294],"type":"VEC3"},{"bufferView":14,"componentType":5126,"count":64,"max":[0.578125,0.5320296883583069],"min":[0.0029296875,0],"type":"VEC2"},{"bufferView":15,"componentType":5123,"count":96,"max":[63],"min":[0],"type":"SCALAR"},{"bufferView":16,"componentType":5126,"count":24,"max":[0.8125,0.4609375,0.0859375],"min":[0.5,0.2890625,-0.0859375],"type":"VEC3"},{"bufferView":17,"componentType":5126,"count":24,"max":[1,0.997199296951294,0.997199296951294],"min":[-1,-0.997199296951294,-0.997199296951294],"type":"VEC3"},{"bufferView":18,"componentType":5126,"count":24,"max":[0.6459153890609741,0.6433947682380676],"min":[0.0957629606127739,0.09375],"type":"VEC2"},{"bufferView":19,"componentType":5123,"count":36,"max":[23],"min":[0],"type":"SCALAR"},{"bufferView":20,"componentType":5126,"count":24,"max":[1.125,0.4609375,0.109375],"min":[0.8125,0.2890625,-0.109375],"type":"VEC3"},{"bufferView":21,"componentType":5126,"count":24,"max":[1,0.999687671661377,0.997199296951294],"min":[-1,-0.999687671661377,-0.997199296951294],"type":"VEC3"},{"bufferView":22,"componentType":5126,"count":24,"max":[0.640625,0.60546875],"min":[0.15625,0],"type":"VEC2"},{"bufferView":23,"componentType":5123,"count":36,"max":[23],"min":[0],"type":"SCALAR"},{"bufferView":24,"componentType":5126,"count":64,"max":[1.3125,0.4375,0.125],"min":[1.0625,0.3125,-0.125],"type":"VEC3"},{"bufferView":25,"componentType":5126,"count":64,"max":[0.9899494647979736,1,0.9899494647979736],"min":[-1,-1,-0.9899494647979736],"type":"VEC3"},{"bufferView":26,"componentType":5126,"count":64,"max":[0.4102781116962433,0.6484375],"min":[0,0.3125],"type":"VEC2"},{"bufferView":27,"componentType":5123,"count":96,"max":[63],"min":[0],"type":"SCALAR"},{"bufferView":28,"componentType":5126,"count":24,"max":[-0.5,0.4609375,0.0859375],"min":[-0.8125,0.2890625,-0.0859375],"type":"VEC3"},{"bufferView":29,"componentType":5126,"count":24,"max":[1,0.997199296951294,0.997199296951294],"min":[-1,-0.997199296951294,-0.997199296951294],"type":"VEC3"},{"bufferView":30,"componentType":5126,"count":24,"max":[0.6459153890609741,0.6433947682380676],"min":[0.0957629606127739,0.09375],"type":"VEC2"},{"bufferView":31,"componentType":5123,"count":36,"max":[23],"min":[0],"type":"SCALAR"},{"bufferView":32,"componentType":5126,"count":64,"max":[-1.0625,0.4375,0.125],"min":[-1.3125,0.3125,-0.125],"type":"VEC3"},{"bufferView":33,"componentType":5126,"count":64,"max":[1,1,0.9899494647979736],"min":[-0.9899494647979736,-1,-0.9899494647979736],"type":"VEC3"},{"bufferView":34,"componentType":5126,"count":64,"max":[0.4102781116962433,0.6484375],"min":[0,0.3125],"type":"VEC2"},{"bufferView":35,"componentType":5123,"count":96,"max":[63],"min":[0],"type":"SCALAR"},{"bufferView":36,"componentType":5126,"count":24,"max":[-0.8125,0.4609375,0.109375],"min":[-1.125,0.2890625,-0.109375],"type":"VEC3"},{"bufferView":37,"componentType":5126,"count":24,"max":[1,0.999687671661377,0.997199296951294],"min":[-1,-0.999687671661377,-0.997199296951294],"type":"VEC3"},{"bufferView":38,"componentType":5126,"count":24,"max":[0.640625,0.60546875],"min":[0.15625,0],"type":"VEC2"},{"bufferView":39,"componentType":5123,"count":36,"max":[23],"min":[0],"type":"SCALAR"},{"bufferView":40,"componentType":5126,"count":24,"max":[0.234375,0,0.0625],"min":[0.109375,-0.5,-0.0625],"type":"VEC3"},{"bufferView":41,"componentType":5126,"count":24,"max":[0.9995120763778687,1,1],"min":[-0.9995120763778687,-1,-1],"type":"VEC3"},{"bufferView":42,"componentType":5126,"count":24,"max":[0.640625,0.65625],"min":[0.390625,0.328125],"type":"VEC2"},{"bufferView":43,"componentType":5123,"count":36,"max":[23],"min":[0],"type":"SCALAR"},{"bufferView":44,"componentType":5126,"count":24,"max":[-0.109375,0,0.0625],"min":[-0.234375,-0.5,-0.0625],"type":"VEC3"},{"bufferView":45,"componentType":5126,"count":24,"max":[0.9995120763778687,1,1],"min":[-0.9995120763778687,-1,-1],"type":"VEC3"},{"bufferView":46,"componentType":5126,"count":24,"max":[0.640625,0.65625],"min":[0.390625,0.328125],"type":"VEC2"},{"bufferView":47,"componentType":5123,"count":36,"max":[23],"min":[0],"type":"SCALAR"}],"materials":[{"pbrMetallicRoughness":{"metallicFactor":0,"roughnessFactor":1,"baseColorTexture":{"index":0}},"alphaMode":"MASK","alphaCutoff":0.05,"doubleSided":true}],"textures":[{"sampler":0,"source":0,"name":"texture.png"}],"samplers":[{"magFilter":9728,"minFilter":9728,"wrapS":33071,"wrapT":33071}],"images":[{"mimeType":"image/png","uri":"data:image/png;base64,"}],"meshes":[{"primitives":[{"mode":4,"attributes":{"POSITION":0,"NORMAL":1,"TEXCOORD_0":2},"indices":3,"material":0}]},{"primitives":[{"mode":4,"attributes":{"POSITION":4,"NORMAL":5,"TEXCOORD_0":6},"indices":7,"material":0}]},{"primitives":[{"mode":4,"attributes":{"POSITION":8,"NORMAL":9,"TEXCOORD_0":10},"indices":11,"material":0}]},{"primitives":[{"mode":4,"attributes":{"POSITION":12,"NORMAL":13,"TEXCOORD_0":14},"indices":15,"material":0}]},{"primitives":[{"mode":4,"attributes":{"POSITION":16,"NORMAL":17,"TEXCOORD_0":18},"indices":19,"material":0}]},{"primitives":[{"mode":4,"attributes":{"POSITION":20,"NORMAL":21,"TEXCOORD_0":22},"indices":23,"material":0}]},{"primitives":[{"mode":4,"attributes":{"POSITION":24,"NORMAL":25,"TEXCOORD_0":26},"indices":27,"material":0}]},{"primitives":[{"mode":4,"attributes":{"POSITION":28,"NORMAL":29,"TEXCOORD_0":30},"indices":31,"material":0}]},{"primitives":[{"mode":4,"attributes":{"POSITION":32,"NORMAL":33,"TEXCOORD_0":34},"indices":35,"material":0}]},{"primitives":[{"mode":4,"attributes":{"POSITION":36,"NORMAL":37,"TEXCOORD_0":38},"indices":39,"material":0}]},{"primitives":[{"mode":4,"attributes":{"POSITION":40,"NORMAL":41,"TEXCOORD_0":42},"indices":43,"material":0}]},{"primitives":[{"mode":4,"attributes":{"POSITION":44,"NORMAL":45,"TEXCOORD_0":46},"indices":47,"material":0}]}]}